<svg xmlns="http://www.w3.org/2000/svg" viewBox="0 0 179.73 160.73"><defs><style>.cls-1{fill:#fff;}</style></defs><g id="Layer_2" data-name="Layer 2"><g id="Home_Icon" data-name="Home Icon"><path class="cls-1" d="M89.87,0Q-4.31,66.68.22,81.85c1.11,3.85,6.9,5.28,17.44,4.29q.29,27.89.56,55.89c.09,10.45,6.62,18.81,14.46,18.7,18.47-.33,36.85-.66,55.32-.88h3.73c18.47.22,36.85.55,55.32.88,7.84.11,14.28-8.25,14.37-18.7q.42-28.05.65-55.89c10.45,1,16.33-.44,17.45-4.29Q184.14,66.67,89.87,0Zm.74,109.14c-10,0-18.1-9.58-18.1-21.35s8.12-21.23,18.1-21.23,18,9.46,18,21.23S100.59,109.14,90.61,109.14Z"/></g></g></svg>