<svg xmlns="http://www.w3.org/2000/svg" viewBox="0 0 220.4 223.36"><defs><style>.cls-1,.cls-2{fill:none;stroke:#fff;stroke-miterlimit:10;}.cls-1{stroke-width:15.03px;}.cls-2{stroke-width:15px;}</style></defs><g id="Layer_2" data-name="Layer 2"><g id="Twitter_Sidebar_Icons" data-name="Twitter Sidebar Icons"><g id="Notification_Icon" data-name="Notification Icon"><g id="Notification"><path class="cls-1" d="M110.2,7.52c10.8,0,28.09,5.59,43.18,19.6C177.87,49.86,189,90,184,132.9c-1.56,13.36,2.67,26.75,11.25,35.72l7.53,7.88H110.2"/><path class="cls-2" d="M109.55,215.77a19.87,19.87,0,0,0,3.45,0c20.49,0,37.66-16.82,41.95-39.28"/><path class="cls-1" d="M110.2,7.52c-11.43,0-28.1,5.59-43.18,19.6C42.53,49.86,31.37,90,36.37,132.9c1.56,13.36-2.67,26.75-11.25,35.72l-7.53,7.88H110.2"/><path class="cls-2" d="M65.45,176.49c4.29,22.46,21.46,39.28,41.94,39.28a22.23,22.23,0,0,0,3.65,0"/></g></g></g></g></svg>