<svg xmlns="http://www.w3.org/2000/svg" viewBox="0 0 189.58 169"><defs><style>.cls-1{fill:#72777d;}.cls-2{fill:#1b1e21;}</style></defs><g id="Layer_2" data-name="Layer 2"><g id="Icon"><g id="Final"><rect id="Background" class="cls-1" width="189.58" height="169" rx="9.51"/><g id="Tarnacop"><path class="cls-2" d="M137.53,51.36V45.11H78.65V57.28H112V63.2h-7.49v6.42c0,.16-.53.32-1.61.32s-2.85-.16-4.82-.32v6.25H92v6.25H84.89v5.59h-6.6V94H72v5.92h-7v5.76H58.84v6.74H52.06v6.25h7.13v5.27h6.25v-6.25H72v-6.09h6.61V105.8h6.78V99.71H92V93.3h6.42V87.38h6.43V81.46h6.42V75.37h6.6V69.45h7.32v30.6h12.3"/><path class="cls-2" d="M137.52,100.05V51.24"/></g></g></g></g></svg>