<svg xmlns="http://www.w3.org/2000/svg" xmlns:xlink="http://www.w3.org/1999/xlink" viewBox="0 0 168.51 168.51"><defs><style>.cls-1{fill:none;}.cls-2{fill:#fff;}.cls-3{clip-path:url(#clip-path);}.cls-4{fill:#232527;}.cls-5{fill:#cf202f;}</style><clipPath id="clip-path" transform="translate(0 -127.24)"><path class="cls-1" d="M496.56,0s-57.78,30.89-87.65,51h0l-.34,1,.7.5h0c10.69,0,51.18.07,52.2-.12a40.82,40.82,0,0,0,11.71-2.67A39.8,39.8,0,0,0,495,28.82,40.74,40.74,0,0,0,496.56,0"/></clipPath></defs><g id="Layer_2" data-name="Layer 2"><g id="huawei.svg"><rect id="background" class="cls-2" width="168.51" height="168.51"/><g id="logo"><g id="layer1"><g id="g11533"><path id="path4250" class="cls-4" d="M62.65,237.74v9.6c0,2.72-1.35,4.18-3.81,4.18S55,250,55,247.22v-9.47h-3.4v9.59c0,4.71,2.62,7.42,7.19,7.42s7.25-2.76,7.25-7.56v-9.46Zm12.52,0L67.78,254.5h3.47l1.43-3.25.1-.24h7.67L82,254.5h3.56L78.2,237.84l-.06-.1Zm20.21,0-3.8,11.53-3.71-11.52H84.26l5.84,16.76h2.81l3.82-11,3.81,11h2.84l5.82-16.76h-3.52L102,249.27l-3.81-11.53Zm33.28,0v16.74H132V237.74Zm-96.25,0v16.77h3.4V247.7h7.68v6.81H46.9V237.74H43.49v6.76H35.81v-6.76Zm79.54,0v16.74h12.66v-3.05H115.3v-4.15h6.19v-3H115.3v-3.43h9v-3.06ZM76.61,242,79,247.6h0l.17.38H74l.17-.38h0Z" transform="translate(0 -127.24)"/><path id="path4252" class="cls-5" d="M74.77,152.07c-1.35.12-5,1-5,1h0A14.2,14.2,0,0,0,59,166.35V168a19.8,19.8,0,0,0,.67,4.44c2.75,12.17,16.24,32.17,19.14,36.38.21.2.37.13.37.13a.38.38,0,0,0,.29-.39h0c4.47-44.66-4.69-56.49-4.69-56.49Zm14.76,0s-9.19,11.84-4.72,56.52h0a.4.4,0,0,0,.24.35.37.37,0,0,0,.45-.18h0c3-4.31,16.4-24.2,19.13-36.33,0,0,1.48-5.87.05-9.84A14.4,14.4,0,0,0,94.42,153s-2.37-.6-4.89-1Zm-42.42,13.4s-7.83,7.43-8.22,15.31h0V182c0,.09,0,.18,0,.27A14.85,14.85,0,0,0,44,192.36c7.7,7.51,26.34,17,30.68,19.13a.34.34,0,0,0,.41-.07.31.31,0,0,0,.1-.14v-.2s0,0,0,0h0a230.82,230.82,0,0,0-28.1-45.58Zm70.06,0a230.72,230.72,0,0,0-28,45.46h0a.42.42,0,0,0,.09.49.39.39,0,0,0,.16.07h.16a.12.12,0,0,0,.09,0h0c4.46-2.21,23-11.63,30.62-19.1a14.94,14.94,0,0,0,5.11-10.15c.56-8.69-8.19-16.74-8.19-16.74Zm14.57,25.74s-26.39,14.16-40,23.36h0a.43.43,0,0,0-.16.46s.13.23.32.23h0c4.89,0,23.38,0,23.84-.06a18.43,18.43,0,0,0,5.35-1.23,18.21,18.21,0,0,0,10-9.55,18.58,18.58,0,0,0,1.58-7.51v-.19a18,18,0,0,0-.89-5.51Zm-99.2.06A18.37,18.37,0,0,0,43.17,214a19.25,19.25,0,0,0,5.94,1.3c.46.08,18.46,0,23.28,0a.4.4,0,0,0,.32-.2l0-.07v-.18a.52.52,0,0,0-.15-.22h0c-13.64-9.2-40.06-23.32-40.06-23.32Zm39.3,26.28-31,1.09c3.37,6,9,10.66,14.94,9.23,4.08-1,13.31-7.46,16.36-9.64h0c.23-.22.15-.39.15-.39a.42.42,0,0,0-.4-.28Zm20.56,0h0s-.28,0-.35.24a.44.44,0,0,0,.11.42h0c3,2.13,12,8.43,16.32,9.65a6.58,6.58,0,0,0,1.76.27h.66c2.91-.1,8-1.6,12.58-9.51Z" transform="translate(0 -127.24)"/></g></g></g></g></g></svg>